<svg width="208" height="128" viewBox="0 0 208 128" fill="none" xmlns="http://www.w3.org/2000/svg">
<g clip-path="url(#clip0_4014_7)">
<path d="M193 5H15C9.47715 5 5 9.47715 5 15V113C5 118.523 9.47715 123 15 123H193C198.523 123 203 118.523 203 113V15C203 9.47715 198.523 5 193 5Z" stroke="#075E54" stroke-width="10"/>
<path d="M155 98L125 65H145V30H165V65H185L155 98Z" fill="#075E54"/>
<path d="M110.081 30.0955L109.919 98.0953L89.9189 98.0476L69.9786 73L49.919 97.9522L29.9191 97.9045L30.0813 29.9047L50.0812 29.9524L49.9882 68.9523L70.0478 44.0001L89.9881 69.0477L90.0811 30.0478L110.081 30.0955Z" fill="#075E54"/>
</g>
<defs>
<clipPath id="clip0_4014_7">
<rect width="208" height="128" fill="white"/>
</clipPath>
</defs>
</svg>
